M48
; DRILL file {KiCad 5.1.8+dfsg1-1~bpo10+1} date Fri Nov 27 20:06:12 2020
; FORMAT={-:-/ absolute / inch / decimal}
; #@! TF.CreationDate,2020-11-27T20:06:12+01:00
; #@! TF.GenerationSoftware,Kicad,Pcbnew,5.1.8+dfsg1-1~bpo10+1
FMAT,2
INCH
T1C0.0157
T2C0.0315
T3C0.0354
T4C0.0394
T5C0.0469
T6C0.0701
%
G90
G05
T1
X3.4022Y-5.3599
X3.5393Y-5.3704
X3.6823Y-3.3944
X3.6878Y-4.6983
X3.6943Y-3.8372
X3.7267Y-5.476
X3.7356Y-3.6645
X3.7496Y-3.346
X3.7781Y-5.4323
X3.7858Y-3.6303
X3.8485Y-5.4678
X3.9531Y-5.5503
X3.9782Y-5.5197
X4.0035Y-4.098
X4.032Y-4.1271
X4.0709Y-4.789
X4.0745Y-5.1949
X4.0745Y-5.2483
X4.0761Y-3.953
X4.1117Y-3.8432
X4.1186Y-5.3414
X4.1443Y-4.2816
X4.1928Y-3.9079
X4.385Y-4.8293
X4.4136Y-4.5469
X4.4535Y-4.7709
X4.4652Y-4.4904
X4.58Y-4.6346
X4.5806Y-4.674
X4.6348Y-4.5527
X4.647Y-4.8867
X4.6488Y-4.74
X4.6915Y-4.8488
X4.7192Y-4.1641
X4.7254Y-4.4538
X4.7525Y-4.7143
X4.7747Y-4.5335
X4.778Y-4.828
X4.8372Y-4.4252
X4.8635Y-4.5921
X4.925Y-4.6775
X5.0073Y-3.6959
X5.0619Y-4.5271
T2
X3.874Y-3.5827
X3.874Y-3.6614
X3.874Y-3.7402
X3.874Y-3.8189
X3.874Y-3.8976
X3.874Y-3.9764
X3.874Y-4.0551
X3.874Y-4.1339
X3.874Y-4.2126
X3.874Y-4.2913
X3.874Y-4.3701
X3.874Y-4.4488
X3.874Y-4.5276
X3.874Y-4.6063
X3.874Y-4.685
X3.874Y-4.7638
X3.874Y-4.8425
X3.874Y-4.9213
X3.874Y-5.0
X3.874Y-5.0787
X3.874Y-5.1575
X3.874Y-5.2362
X3.9528Y-3.5827
X3.9528Y-3.6614
X3.9528Y-3.7402
X3.9528Y-3.8189
X3.9528Y-3.8976
X3.9528Y-3.9764
X3.9528Y-4.0551
X3.9528Y-4.1339
X3.9528Y-4.2126
X3.9528Y-4.2913
X3.9528Y-4.3701
X3.9528Y-4.4488
X3.9528Y-4.5276
X3.9528Y-4.6063
X3.9528Y-4.685
X3.9528Y-4.7638
X3.9528Y-4.8425
X3.9528Y-4.9213
X3.9528Y-5.0
X3.9528Y-5.0787
X3.9528Y-5.1575
X3.9528Y-5.2362
X4.7421Y-3.7402
X5.0421Y-3.7402
T3
X4.1516Y-3.7402
X4.2516Y-3.7402
T4
X3.939Y-3.0236
X3.939Y-3.1236
X3.939Y-3.2236
X3.5043Y-3.1748
X3.5043Y-3.2748
X3.5043Y-3.3748
X3.5043Y-3.4748
X3.5043Y-3.5748
X3.5043Y-3.6748
X3.5043Y-3.7748
X3.5043Y-3.8748
X3.5043Y-3.9748
X3.5043Y-4.0748
X3.5043Y-4.1748
X3.5043Y-4.2748
X3.5043Y-4.3748
X3.5043Y-4.4748
X3.5043Y-4.5748
X3.5043Y-4.6748
X3.5043Y-4.7748
X3.5043Y-4.8748
X3.5043Y-4.9748
X3.5043Y-5.0748
X3.6043Y-3.1748
X3.6043Y-3.2748
X3.6043Y-3.3748
X3.6043Y-3.4748
X3.6043Y-3.5748
X3.6043Y-3.6748
X3.6043Y-3.7748
X3.6043Y-3.8748
X3.6043Y-3.9748
X3.6043Y-4.0748
X3.6043Y-4.1748
X3.6043Y-4.2748
X3.6043Y-4.3748
X3.6043Y-4.4748
X3.6043Y-4.5748
X3.6043Y-4.6748
X3.6043Y-4.7748
X3.6043Y-4.8748
X3.6043Y-4.9748
X3.6043Y-5.0748
T5
X3.9547Y-6.0091
X3.9547Y-6.1091
X3.9547Y-6.2091
X3.9547Y-6.3091
T6
X3.5728Y-5.5693
X3.5728Y-5.7693
X3.5728Y-5.9693
X3.5728Y-6.1693
T0
M30
