G04 #@! TF.GenerationSoftware,KiCad,Pcbnew,5.1.8+dfsg1-1~bpo10+1*
G04 #@! TF.CreationDate,2020-11-27T20:05:00+01:00*
G04 #@! TF.ProjectId,SeagateST1adapter,53656167-6174-4655-9354-316164617074,1*
G04 #@! TF.SameCoordinates,Original*
G04 #@! TF.FileFunction,Legend,Top*
G04 #@! TF.FilePolarity,Positive*
%FSLAX46Y46*%
G04 Gerber Fmt 4.6, Leading zero omitted, Abs format (unit mm)*
G04 Created by KiCad (PCBNEW 5.1.8+dfsg1-1~bpo10+1) date 2020-11-27 20:05:00*
%MOMM*%
%LPD*%
G01*
G04 APERTURE LIST*
%ADD10C,0.300000*%
G04 #@! TA.AperFunction,Profile*
%ADD11C,0.050000*%
G04 #@! TD*
%ADD12C,0.120000*%
%ADD13C,0.150000*%
G04 APERTURE END LIST*
D10*
X110096428Y-95425000D02*
X110810714Y-95425000D01*
X109953571Y-95853571D02*
X110453571Y-94353571D01*
X110953571Y-95853571D01*
X112310714Y-95710714D02*
X112239285Y-95782142D01*
X112025000Y-95853571D01*
X111882142Y-95853571D01*
X111667857Y-95782142D01*
X111525000Y-95639285D01*
X111453571Y-95496428D01*
X111382142Y-95210714D01*
X111382142Y-94996428D01*
X111453571Y-94710714D01*
X111525000Y-94567857D01*
X111667857Y-94425000D01*
X111882142Y-94353571D01*
X112025000Y-94353571D01*
X112239285Y-94425000D01*
X112310714Y-94496428D01*
X112739285Y-94353571D02*
X113596428Y-94353571D01*
X113167857Y-95853571D02*
X113167857Y-94353571D01*
D11*
X81330800Y-165100000D02*
X81330800Y-70967600D01*
X137160000Y-165100000D02*
X81330800Y-165100000D01*
X137160000Y-70967600D02*
X137160000Y-165100000D01*
X81330800Y-70967600D02*
X137160000Y-70967600D01*
D12*
X105050000Y-79350000D02*
X119700000Y-79350000D01*
X119650000Y-75850000D02*
X105050000Y-75900000D01*
X119650000Y-82850000D02*
X119650000Y-75850000D01*
X105050000Y-82850000D02*
X119650000Y-82850000D01*
X105050000Y-75900000D02*
X105050000Y-82850000D01*
D13*
X102766666Y-81302380D02*
X103385714Y-81302380D01*
X103052380Y-81683333D01*
X103195238Y-81683333D01*
X103290476Y-81730952D01*
X103338095Y-81778571D01*
X103385714Y-81873809D01*
X103385714Y-82111904D01*
X103338095Y-82207142D01*
X103290476Y-82254761D01*
X103195238Y-82302380D01*
X102909523Y-82302380D01*
X102814285Y-82254761D01*
X102766666Y-82207142D01*
X102764285Y-78897619D02*
X102811904Y-78850000D01*
X102907142Y-78802380D01*
X103145238Y-78802380D01*
X103240476Y-78850000D01*
X103288095Y-78897619D01*
X103335714Y-78992857D01*
X103335714Y-79088095D01*
X103288095Y-79230952D01*
X102716666Y-79802380D01*
X103335714Y-79802380D01*
X103285714Y-77252380D02*
X102714285Y-77252380D01*
X103000000Y-77252380D02*
X103000000Y-76252380D01*
X102904761Y-76395238D01*
X102809523Y-76490476D01*
X102714285Y-76538095D01*
X97400000Y-76552380D02*
X97400000Y-76790476D01*
X97161904Y-76695238D02*
X97400000Y-76790476D01*
X97638095Y-76695238D01*
X97257142Y-76980952D02*
X97400000Y-76790476D01*
X97542857Y-76980952D01*
D10*
X106082142Y-80496428D02*
X106153571Y-80425000D01*
X106296428Y-80353571D01*
X106653571Y-80353571D01*
X106796428Y-80425000D01*
X106867857Y-80496428D01*
X106939285Y-80639285D01*
X106939285Y-80782142D01*
X106867857Y-80996428D01*
X106010714Y-81853571D01*
X106939285Y-81853571D01*
X107582142Y-81282142D02*
X108725000Y-81282142D01*
X109296428Y-80353571D02*
X110225000Y-80353571D01*
X109725000Y-80925000D01*
X109939285Y-80925000D01*
X110082142Y-80996428D01*
X110153571Y-81067857D01*
X110225000Y-81210714D01*
X110225000Y-81567857D01*
X110153571Y-81710714D01*
X110082142Y-81782142D01*
X109939285Y-81853571D01*
X109510714Y-81853571D01*
X109367857Y-81782142D01*
X109296428Y-81710714D01*
X111939285Y-81782142D02*
X112153571Y-81853571D01*
X112510714Y-81853571D01*
X112653571Y-81782142D01*
X112725000Y-81710714D01*
X112796428Y-81567857D01*
X112796428Y-81425000D01*
X112725000Y-81282142D01*
X112653571Y-81210714D01*
X112510714Y-81139285D01*
X112225000Y-81067857D01*
X112082142Y-80996428D01*
X112010714Y-80925000D01*
X111939285Y-80782142D01*
X111939285Y-80639285D01*
X112010714Y-80496428D01*
X112082142Y-80425000D01*
X112225000Y-80353571D01*
X112582142Y-80353571D01*
X112796428Y-80425000D01*
X113653571Y-81853571D02*
X113510714Y-81782142D01*
X113439285Y-81639285D01*
X113439285Y-80353571D01*
X114867857Y-81853571D02*
X114867857Y-81067857D01*
X114796428Y-80925000D01*
X114653571Y-80853571D01*
X114367857Y-80853571D01*
X114225000Y-80925000D01*
X114867857Y-81782142D02*
X114725000Y-81853571D01*
X114367857Y-81853571D01*
X114225000Y-81782142D01*
X114153571Y-81639285D01*
X114153571Y-81496428D01*
X114225000Y-81353571D01*
X114367857Y-81282142D01*
X114725000Y-81282142D01*
X114867857Y-81210714D01*
X115439285Y-80853571D02*
X115796428Y-81853571D01*
X116153571Y-80853571D01*
X117296428Y-81782142D02*
X117153571Y-81853571D01*
X116867857Y-81853571D01*
X116725000Y-81782142D01*
X116653571Y-81639285D01*
X116653571Y-81067857D01*
X116725000Y-80925000D01*
X116867857Y-80853571D01*
X117153571Y-80853571D01*
X117296428Y-80925000D01*
X117367857Y-81067857D01*
X117367857Y-81210714D01*
X116653571Y-81353571D01*
X106835714Y-78403571D02*
X105978571Y-78403571D01*
X106407142Y-78403571D02*
X106407142Y-76903571D01*
X106264285Y-77117857D01*
X106121428Y-77260714D01*
X105978571Y-77332142D01*
X107478571Y-77832142D02*
X108621428Y-77832142D01*
X109264285Y-77046428D02*
X109335714Y-76975000D01*
X109478571Y-76903571D01*
X109835714Y-76903571D01*
X109978571Y-76975000D01*
X110050000Y-77046428D01*
X110121428Y-77189285D01*
X110121428Y-77332142D01*
X110050000Y-77546428D01*
X109192857Y-78403571D01*
X110121428Y-78403571D01*
X111907142Y-78403571D02*
X111907142Y-76903571D01*
X112407142Y-77975000D01*
X112907142Y-76903571D01*
X112907142Y-78403571D01*
X114264285Y-78403571D02*
X114264285Y-77617857D01*
X114192857Y-77475000D01*
X114050000Y-77403571D01*
X113764285Y-77403571D01*
X113621428Y-77475000D01*
X114264285Y-78332142D02*
X114121428Y-78403571D01*
X113764285Y-78403571D01*
X113621428Y-78332142D01*
X113550000Y-78189285D01*
X113550000Y-78046428D01*
X113621428Y-77903571D01*
X113764285Y-77832142D01*
X114121428Y-77832142D01*
X114264285Y-77760714D01*
X114907142Y-78332142D02*
X115050000Y-78403571D01*
X115335714Y-78403571D01*
X115478571Y-78332142D01*
X115550000Y-78189285D01*
X115550000Y-78117857D01*
X115478571Y-77975000D01*
X115335714Y-77903571D01*
X115121428Y-77903571D01*
X114978571Y-77832142D01*
X114907142Y-77689285D01*
X114907142Y-77617857D01*
X114978571Y-77475000D01*
X115121428Y-77403571D01*
X115335714Y-77403571D01*
X115478571Y-77475000D01*
X115978571Y-77403571D02*
X116550000Y-77403571D01*
X116192857Y-76903571D02*
X116192857Y-78189285D01*
X116264285Y-78332142D01*
X116407142Y-78403571D01*
X116550000Y-78403571D01*
X117621428Y-78332142D02*
X117478571Y-78403571D01*
X117192857Y-78403571D01*
X117050000Y-78332142D01*
X116978571Y-78189285D01*
X116978571Y-77617857D01*
X117050000Y-77475000D01*
X117192857Y-77403571D01*
X117478571Y-77403571D01*
X117621428Y-77475000D01*
X117692857Y-77617857D01*
X117692857Y-77760714D01*
X116978571Y-77903571D01*
X118335714Y-78403571D02*
X118335714Y-77403571D01*
X118335714Y-77689285D02*
X118407142Y-77546428D01*
X118478571Y-77475000D01*
X118621428Y-77403571D01*
X118764285Y-77403571D01*
D12*
G04 #@! TO.C,U1*
X97550000Y-139240000D02*
X103560000Y-139240000D01*
X99800000Y-146060000D02*
X103560000Y-146060000D01*
X103560000Y-139240000D02*
X103560000Y-140500000D01*
X103560000Y-146060000D02*
X103560000Y-144800000D01*
G04 #@! TO.C,R1*
X127530000Y-96370000D02*
X127530000Y-96040000D01*
X120990000Y-96370000D02*
X127530000Y-96370000D01*
X120990000Y-96040000D02*
X120990000Y-96370000D01*
X127530000Y-93630000D02*
X127530000Y-93960000D01*
X120990000Y-93630000D02*
X127530000Y-93630000D01*
X120990000Y-93960000D02*
X120990000Y-93630000D01*
G04 #@! TO.C,D1*
X105160000Y-96080000D02*
X105160000Y-96236000D01*
X105160000Y-93764000D02*
X105160000Y-93920000D01*
X107761130Y-96079837D02*
G75*
G02*
X105679039Y-96080000I-1041130J1079837D01*
G01*
X107761130Y-93920163D02*
G75*
G03*
X105679039Y-93920000I-1041130J-1079837D01*
G01*
X108392335Y-96078608D02*
G75*
G02*
X105160000Y-96235516I-1672335J1078608D01*
G01*
X108392335Y-93921392D02*
G75*
G03*
X105160000Y-93764484I-1672335J-1078608D01*
G01*
G04 #@! TO.C,JP1*
X98720000Y-75470000D02*
X100050000Y-75470000D01*
X98720000Y-76800000D02*
X98720000Y-75470000D01*
X98720000Y-78070000D02*
X101380000Y-78070000D01*
X101380000Y-78070000D02*
X101380000Y-83210000D01*
X98720000Y-78070000D02*
X98720000Y-83210000D01*
X98720000Y-83210000D02*
X101380000Y-83210000D01*
G04 #@! TO.C,J7*
X101460000Y-134060000D02*
X100400000Y-134060000D01*
X101460000Y-133000000D02*
X101460000Y-134060000D01*
X99400000Y-134060000D02*
X97340000Y-134060000D01*
X99400000Y-132000000D02*
X99400000Y-134060000D01*
X101460000Y-132000000D02*
X99400000Y-132000000D01*
X97340000Y-134060000D02*
X97340000Y-89940000D01*
X101460000Y-132000000D02*
X101460000Y-89940000D01*
X101460000Y-89940000D02*
X97340000Y-89940000D01*
G04 #@! TO.C,J3*
X96230000Y-128400000D02*
X95230000Y-128900000D01*
X96230000Y-129400000D02*
X96230000Y-128400000D01*
X95230000Y-128900000D02*
X96230000Y-129400000D01*
X93530000Y-102720000D02*
X94840000Y-102720000D01*
X93530000Y-102720000D02*
X93530000Y-102720000D01*
X93530000Y-76730000D02*
X93530000Y-102720000D01*
X87030000Y-76730000D02*
X93530000Y-76730000D01*
X87030000Y-132810000D02*
X87030000Y-76730000D01*
X93530000Y-132810000D02*
X87030000Y-132810000D01*
X93530000Y-106820000D02*
X93530000Y-132810000D01*
X94840000Y-106820000D02*
X93530000Y-106820000D01*
X94840000Y-75430000D02*
X94840000Y-134110000D01*
X85720000Y-75430000D02*
X94840000Y-75430000D01*
X85720000Y-134110000D02*
X85720000Y-75430000D01*
X94840000Y-134110000D02*
X85720000Y-134110000D01*
G04 #@! TO.C,J5*
X85080000Y-154280000D02*
X85080000Y-152590000D01*
X85080000Y-152590000D02*
X86470000Y-152590000D01*
X86470000Y-154280000D02*
X85080000Y-154280000D01*
X86470000Y-149200000D02*
X85080000Y-149200000D01*
X85080000Y-147510000D02*
X86470000Y-147510000D01*
X85080000Y-149200000D02*
X85080000Y-147510000D01*
X85080000Y-144100000D02*
X85080000Y-142410000D01*
X86470000Y-144100000D02*
X85080000Y-144100000D01*
X85080000Y-142410000D02*
X86470000Y-142410000D01*
X86470000Y-159170000D02*
X85080000Y-159170000D01*
X85080000Y-157480000D02*
X86470000Y-157480000D01*
X85080000Y-159170000D02*
X85080000Y-157480000D01*
X85080000Y-139000000D02*
X85080000Y-137310000D01*
X86470000Y-139000000D02*
X85080000Y-139000000D01*
X88890000Y-161930000D02*
X88890000Y-160850000D01*
X92610000Y-161930000D02*
X88890000Y-161930000D01*
X92610000Y-160850000D02*
X92610000Y-161930000D01*
X88890000Y-136230000D02*
X88890000Y-137310000D01*
X92610000Y-136230000D02*
X88890000Y-136230000D01*
X92610000Y-137310000D02*
X92610000Y-136230000D01*
X87610000Y-160850000D02*
X93890000Y-160850000D01*
X86470000Y-138450000D02*
X86470000Y-159710000D01*
X93890000Y-137310000D02*
X85080000Y-137310000D01*
X95030000Y-159710000D02*
X95030000Y-138450000D01*
X92140000Y-159650000D02*
X87530000Y-159650000D01*
X93970000Y-157820000D02*
X92140000Y-159650000D01*
X93970000Y-140340000D02*
X93970000Y-157820000D01*
X92140000Y-138510000D02*
X93970000Y-140340000D01*
X87530000Y-138510000D02*
X92140000Y-138510000D01*
X87530000Y-159650000D02*
X87530000Y-138510000D01*
X95030000Y-159710000D02*
G75*
G02*
X93890000Y-160850000I-1140000J0D01*
G01*
X87610000Y-160850000D02*
G75*
G02*
X86470000Y-159710000I0J1140000D01*
G01*
X93890000Y-137310000D02*
G75*
G02*
X95030000Y-138450000I0J-1140000D01*
G01*
X86470000Y-138450000D02*
G75*
G02*
X87610000Y-137310000I1140000J0D01*
G01*
G04 #@! TO.C,J4*
X98020000Y-151830000D02*
X97420000Y-151830000D01*
X98020000Y-153430000D02*
X98020000Y-151830000D01*
X97420000Y-153430000D02*
X98020000Y-153430000D01*
X98020000Y-154370000D02*
X97420000Y-154370000D01*
X98020000Y-155970000D02*
X98020000Y-154370000D01*
X97420000Y-155970000D02*
X98020000Y-155970000D01*
X98020000Y-156910000D02*
X97420000Y-156910000D01*
X98020000Y-158510000D02*
X98020000Y-156910000D01*
X97420000Y-158510000D02*
X98020000Y-158510000D01*
X98020000Y-159450000D02*
X97420000Y-159450000D01*
X98020000Y-161050000D02*
X98020000Y-159450000D01*
X97420000Y-161050000D02*
X98020000Y-161050000D01*
X103440000Y-152880000D02*
X102440000Y-152880000D01*
X103440000Y-160000000D02*
X102440000Y-160000000D01*
X101910000Y-152880000D02*
X102440000Y-152630000D01*
X101910000Y-160000000D02*
X101910000Y-152880000D01*
X102440000Y-160250000D02*
X101910000Y-160000000D01*
X102440000Y-152630000D02*
X103440000Y-152630000D01*
X102440000Y-160250000D02*
X102440000Y-152630000D01*
X103440000Y-160250000D02*
X102440000Y-160250000D01*
X98450000Y-161920000D02*
X102450000Y-161920000D01*
X97420000Y-151250000D02*
X97420000Y-161630000D01*
X103440000Y-151250000D02*
X97420000Y-151250000D01*
X103440000Y-161630000D02*
X103440000Y-151250000D01*
X97420000Y-161630000D02*
X103440000Y-161630000D01*
G04 #@! TO.C,J2*
X115850000Y-125200000D02*
X115850000Y-125600000D01*
X116250000Y-125400000D02*
X115850000Y-125200000D01*
X115850000Y-125600000D02*
X116250000Y-125400000D01*
X118440000Y-100325000D02*
X119040000Y-100325000D01*
X118440000Y-100435000D02*
X118440000Y-100325000D01*
X118440000Y-128475000D02*
X119040000Y-128475000D01*
X118440000Y-128365000D02*
X118440000Y-128475000D01*
G04 #@! TO.C,J1*
X127400000Y-125810000D02*
X126200000Y-125810000D01*
X133200000Y-101500000D02*
X131460000Y-101500000D01*
X133200000Y-127300000D02*
X133200000Y-101500000D01*
X131460000Y-127300000D02*
X133200000Y-127300000D01*
X127400000Y-101500000D02*
X128740000Y-101500000D01*
X127400000Y-102990000D02*
X127400000Y-101500000D01*
X127400000Y-127300000D02*
X128740000Y-127300000D01*
X127400000Y-125810000D02*
X127400000Y-127300000D01*
G04 #@! TD*
G04 #@! TO.C,U1*
D13*
X100888095Y-137602380D02*
X100888095Y-138411904D01*
X100935714Y-138507142D01*
X100983333Y-138554761D01*
X101078571Y-138602380D01*
X101269047Y-138602380D01*
X101364285Y-138554761D01*
X101411904Y-138507142D01*
X101459523Y-138411904D01*
X101459523Y-137602380D01*
X102459523Y-138602380D02*
X101888095Y-138602380D01*
X102173809Y-138602380D02*
X102173809Y-137602380D01*
X102078571Y-137745238D01*
X101983333Y-137840476D01*
X101888095Y-137888095D01*
G04 #@! TO.C,R1*
X124093333Y-93082380D02*
X123760000Y-92606190D01*
X123521904Y-93082380D02*
X123521904Y-92082380D01*
X123902857Y-92082380D01*
X123998095Y-92130000D01*
X124045714Y-92177619D01*
X124093333Y-92272857D01*
X124093333Y-92415714D01*
X124045714Y-92510952D01*
X123998095Y-92558571D01*
X123902857Y-92606190D01*
X123521904Y-92606190D01*
X125045714Y-93082380D02*
X124474285Y-93082380D01*
X124760000Y-93082380D02*
X124760000Y-92082380D01*
X124664761Y-92225238D01*
X124569523Y-92320476D01*
X124474285Y-92368095D01*
G04 #@! TO.C,D1*
X105981904Y-92492380D02*
X105981904Y-91492380D01*
X106220000Y-91492380D01*
X106362857Y-91540000D01*
X106458095Y-91635238D01*
X106505714Y-91730476D01*
X106553333Y-91920952D01*
X106553333Y-92063809D01*
X106505714Y-92254285D01*
X106458095Y-92349523D01*
X106362857Y-92444761D01*
X106220000Y-92492380D01*
X105981904Y-92492380D01*
X107505714Y-92492380D02*
X106934285Y-92492380D01*
X107220000Y-92492380D02*
X107220000Y-91492380D01*
X107124761Y-91635238D01*
X107029523Y-91730476D01*
X106934285Y-91778095D01*
G04 #@! TO.C,JP1*
X99216666Y-73922380D02*
X99216666Y-74636666D01*
X99169047Y-74779523D01*
X99073809Y-74874761D01*
X98930952Y-74922380D01*
X98835714Y-74922380D01*
X99692857Y-74922380D02*
X99692857Y-73922380D01*
X100073809Y-73922380D01*
X100169047Y-73970000D01*
X100216666Y-74017619D01*
X100264285Y-74112857D01*
X100264285Y-74255714D01*
X100216666Y-74350952D01*
X100169047Y-74398571D01*
X100073809Y-74446190D01*
X99692857Y-74446190D01*
X101216666Y-74922380D02*
X100645238Y-74922380D01*
X100930952Y-74922380D02*
X100930952Y-73922380D01*
X100835714Y-74065238D01*
X100740476Y-74160476D01*
X100645238Y-74208095D01*
G04 #@! TO.C,J7*
X99066666Y-134512380D02*
X99066666Y-135226666D01*
X99019047Y-135369523D01*
X98923809Y-135464761D01*
X98780952Y-135512380D01*
X98685714Y-135512380D01*
X99447619Y-134512380D02*
X100114285Y-134512380D01*
X99685714Y-135512380D01*
G04 #@! TO.C,J3*
X89946666Y-134452380D02*
X89946666Y-135166666D01*
X89899047Y-135309523D01*
X89803809Y-135404761D01*
X89660952Y-135452380D01*
X89565714Y-135452380D01*
X90327619Y-134452380D02*
X90946666Y-134452380D01*
X90613333Y-134833333D01*
X90756190Y-134833333D01*
X90851428Y-134880952D01*
X90899047Y-134928571D01*
X90946666Y-135023809D01*
X90946666Y-135261904D01*
X90899047Y-135357142D01*
X90851428Y-135404761D01*
X90756190Y-135452380D01*
X90470476Y-135452380D01*
X90375238Y-135404761D01*
X90327619Y-135357142D01*
G04 #@! TO.C,J5*
X83702380Y-148143333D02*
X84416666Y-148143333D01*
X84559523Y-148190952D01*
X84654761Y-148286190D01*
X84702380Y-148429047D01*
X84702380Y-148524285D01*
X83702380Y-147190952D02*
X83702380Y-147667142D01*
X84178571Y-147714761D01*
X84130952Y-147667142D01*
X84083333Y-147571904D01*
X84083333Y-147333809D01*
X84130952Y-147238571D01*
X84178571Y-147190952D01*
X84273809Y-147143333D01*
X84511904Y-147143333D01*
X84607142Y-147190952D01*
X84654761Y-147238571D01*
X84702380Y-147333809D01*
X84702380Y-147571904D01*
X84654761Y-147667142D01*
X84607142Y-147714761D01*
G04 #@! TO.C,J4*
X95782380Y-156773333D02*
X96496666Y-156773333D01*
X96639523Y-156820952D01*
X96734761Y-156916190D01*
X96782380Y-157059047D01*
X96782380Y-157154285D01*
X96115714Y-155868571D02*
X96782380Y-155868571D01*
X95734761Y-156106666D02*
X96449047Y-156344761D01*
X96449047Y-155725714D01*
G04 #@! TO.C,J2*
X112752380Y-114733333D02*
X113466666Y-114733333D01*
X113609523Y-114780952D01*
X113704761Y-114876190D01*
X113752380Y-115019047D01*
X113752380Y-115114285D01*
X112847619Y-114304761D02*
X112800000Y-114257142D01*
X112752380Y-114161904D01*
X112752380Y-113923809D01*
X112800000Y-113828571D01*
X112847619Y-113780952D01*
X112942857Y-113733333D01*
X113038095Y-113733333D01*
X113180952Y-113780952D01*
X113752380Y-114352380D01*
X113752380Y-113733333D01*
G04 #@! TO.C,J1*
X124452380Y-114733333D02*
X125166666Y-114733333D01*
X125309523Y-114780952D01*
X125404761Y-114876190D01*
X125452380Y-115019047D01*
X125452380Y-115114285D01*
X125452380Y-113733333D02*
X125452380Y-114304761D01*
X125452380Y-114019047D02*
X124452380Y-114019047D01*
X124595238Y-114114285D01*
X124690476Y-114209523D01*
X124738095Y-114304761D01*
G04 #@! TD*
M02*
