G04 #@! TF.GenerationSoftware,KiCad,Pcbnew,5.1.8+dfsg1-1~bpo10+1*
G04 #@! TF.CreationDate,2020-11-27T20:05:00+01:00*
G04 #@! TF.ProjectId,SeagateST1adapter,53656167-6174-4655-9354-316164617074,1*
G04 #@! TF.SameCoordinates,Original*
G04 #@! TF.FileFunction,Soldermask,Bot*
G04 #@! TF.FilePolarity,Negative*
%FSLAX46Y46*%
G04 Gerber Fmt 4.6, Leading zero omitted, Abs format (unit mm)*
G04 Created by KiCad (PCBNEW 5.1.8+dfsg1-1~bpo10+1) date 2020-11-27 20:05:00*
%MOMM*%
%LPD*%
G01*
G04 APERTURE LIST*
G04 #@! TA.AperFunction,Profile*
%ADD10C,0.050000*%
G04 #@! TD*
%ADD11O,1.600000X1.600000*%
%ADD12C,1.600000*%
%ADD13C,1.800000*%
%ADD14R,1.800000X1.800000*%
%ADD15O,1.700000X1.700000*%
%ADD16R,1.700000X1.700000*%
%ADD17O,1.350000X1.350000*%
%ADD18R,1.350000X1.350000*%
%ADD19C,1.700000*%
%ADD20C,2.780000*%
%ADD21R,2.780000X2.780000*%
%ADD22O,2.190000X1.740000*%
G04 APERTURE END LIST*
D10*
X81330800Y-165100000D02*
X81330800Y-70967600D01*
X137160000Y-165100000D02*
X81330800Y-165100000D01*
X137160000Y-70967600D02*
X137160000Y-165100000D01*
X81330800Y-70967600D02*
X137160000Y-70967600D01*
D11*
G04 #@! TO.C,R1*
X128070000Y-95000000D03*
D12*
X120450000Y-95000000D03*
G04 #@! TD*
D13*
G04 #@! TO.C,D1*
X107990000Y-95000000D03*
D14*
X105450000Y-95000000D03*
G04 #@! TD*
D15*
G04 #@! TO.C,JP1*
X100050000Y-81880000D03*
X100050000Y-79340000D03*
D16*
X100050000Y-76800000D03*
G04 #@! TD*
D17*
G04 #@! TO.C,J7*
X98400000Y-91000000D03*
X100400000Y-91000000D03*
X98400000Y-93000000D03*
X100400000Y-93000000D03*
X98400000Y-95000000D03*
X100400000Y-95000000D03*
X98400000Y-97000000D03*
X100400000Y-97000000D03*
X98400000Y-99000000D03*
X100400000Y-99000000D03*
X98400000Y-101000000D03*
X100400000Y-101000000D03*
X98400000Y-103000000D03*
X100400000Y-103000000D03*
X98400000Y-105000000D03*
X100400000Y-105000000D03*
X98400000Y-107000000D03*
X100400000Y-107000000D03*
X98400000Y-109000000D03*
X100400000Y-109000000D03*
X98400000Y-111000000D03*
X100400000Y-111000000D03*
X98400000Y-113000000D03*
X100400000Y-113000000D03*
X98400000Y-115000000D03*
X100400000Y-115000000D03*
X98400000Y-117000000D03*
X100400000Y-117000000D03*
X98400000Y-119000000D03*
X100400000Y-119000000D03*
X98400000Y-121000000D03*
X100400000Y-121000000D03*
X98400000Y-123000000D03*
X100400000Y-123000000D03*
X98400000Y-125000000D03*
X100400000Y-125000000D03*
X98400000Y-127000000D03*
X100400000Y-127000000D03*
X98400000Y-129000000D03*
X100400000Y-129000000D03*
X98400000Y-131000000D03*
X100400000Y-131000000D03*
X98400000Y-133000000D03*
D18*
X100400000Y-133000000D03*
G04 #@! TD*
D19*
G04 #@! TO.C,J3*
X89010000Y-80640000D03*
X89010000Y-83180000D03*
X89010000Y-85720000D03*
X89010000Y-88260000D03*
X89010000Y-90800000D03*
X89010000Y-93340000D03*
X89010000Y-95880000D03*
X89010000Y-98420000D03*
X89010000Y-100960000D03*
X89010000Y-103500000D03*
X89010000Y-106040000D03*
X89010000Y-108580000D03*
X89010000Y-111120000D03*
X89010000Y-113660000D03*
X89010000Y-116200000D03*
X89010000Y-118740000D03*
X89010000Y-121280000D03*
X89010000Y-123820000D03*
X89010000Y-126360000D03*
X89010000Y-128900000D03*
X91550000Y-80640000D03*
X91550000Y-83180000D03*
X91550000Y-85720000D03*
X91550000Y-88260000D03*
X91550000Y-90800000D03*
X91550000Y-93340000D03*
X91550000Y-95880000D03*
X91550000Y-98420000D03*
X91550000Y-100960000D03*
X91550000Y-103500000D03*
X91550000Y-106040000D03*
X91550000Y-108580000D03*
X91550000Y-111120000D03*
X91550000Y-113660000D03*
X91550000Y-116200000D03*
X91550000Y-118740000D03*
X91550000Y-121280000D03*
X91550000Y-123820000D03*
X91550000Y-126360000D03*
G36*
G01*
X92400000Y-128300000D02*
X92400000Y-129500000D01*
G75*
G02*
X92150000Y-129750000I-250000J0D01*
G01*
X90950000Y-129750000D01*
G75*
G02*
X90700000Y-129500000I0J250000D01*
G01*
X90700000Y-128300000D01*
G75*
G02*
X90950000Y-128050000I250000J0D01*
G01*
X92150000Y-128050000D01*
G75*
G02*
X92400000Y-128300000I0J-250000D01*
G01*
G37*
G04 #@! TD*
D20*
G04 #@! TO.C,J5*
X90750000Y-141460000D03*
X90750000Y-146540000D03*
X90750000Y-151620000D03*
D21*
X90750000Y-156700000D03*
G04 #@! TD*
D22*
G04 #@! TO.C,J4*
X100450000Y-152630000D03*
X100450000Y-155170000D03*
X100450000Y-157710000D03*
G36*
G01*
X101295001Y-161120000D02*
X99604999Y-161120000D01*
G75*
G02*
X99355000Y-160870001I0J249999D01*
G01*
X99355000Y-159629999D01*
G75*
G02*
X99604999Y-159380000I249999J0D01*
G01*
X101295001Y-159380000D01*
G75*
G02*
X101545000Y-159629999I0J-249999D01*
G01*
X101545000Y-160870001D01*
G75*
G02*
X101295001Y-161120000I-249999J0D01*
G01*
G37*
G04 #@! TD*
M02*
